<?xml version="1.0" encoding="utf-8"?>
<!-- Generator: Adobe Illustrator 24.1.2, SVG Export Plug-In . SVG Version: 6.00 Build 0)  -->
<svg version="1.1" id="Layer_1" xmlns="http://www.w3.org/2000/svg" xmlns:xlink="http://www.w3.org/1999/xlink" x="0px" y="0px"
	 viewBox="0 0 512 512" style="enable-background:new 0 0 512 512;" xml:space="preserve">
<style type="text/css">
	.st0{fill:#FFB26C;}
</style>
<g>
	<g>
		<g>
			<path class="st0" d="M366.9,186.4c0-3.1,2.5-5.6,5.6-5.6s5.6,2.5,5.6,5.6v216.3c0,9.5-3.9,18.2-10.2,24.5
				c-6.3,6.3-15,10.2-24.5,10.2H168.6c-9.5,0-18.3-3.9-24.5-10.2c-6.3-6.3-10.2-15-10.2-24.5V186.4c0-3.1,2.5-5.6,5.6-5.6
				s5.6,2.5,5.6,5.6v216.3c0,6.4,2.7,12.3,6.9,16.6c4.3,4.3,10.1,6.9,16.6,6.9h174.8c6.4,0,12.3-2.7,16.6-6.9
				c4.3-4.3,6.9-10.1,6.9-16.6L366.9,186.4L366.9,186.4z"/>
			<path class="st0" d="M214,388.1c0,3.1-2.5,5.6-5.6,5.6s-5.6-2.5-5.6-5.6V187.8c0-3.1,2.5-5.6,5.6-5.6s5.6,2.5,5.6,5.6V388.1z"/>
			<path class="st0" d="M261.6,388.1c0,3.1-2.5,5.6-5.6,5.6s-5.6-2.5-5.6-5.6V187.8c0-3.1,2.5-5.6,5.6-5.6s5.6,2.5,5.6,5.6V388.1z"
				/>
			<path class="st0" d="M309.3,388.1c0,3.1-2.5,5.6-5.6,5.6s-5.6-2.5-5.6-5.6V187.8c0-3.1,2.5-5.6,5.6-5.6s5.6,2.5,5.6,5.6V388.1
				L309.3,388.1z"/>
			<path class="st0" d="M210.7,111.4c0,3.1-2.5,5.6-5.6,5.6s-5.6-2.5-5.6-5.6c0-9.6,3.9-18.3,10.2-24.6s15-10.2,24.6-10.2H278
				c9.6,0,18.3,3.9,24.5,10.2c6.3,6.3,10.2,15,10.2,24.5c0,3.1-2.5,5.6-5.6,5.6s-5.6-2.5-5.6-5.6c0-6.4-2.7-12.3-6.9-16.6
				c-4.3-4.3-10.1-6.9-16.6-6.9h-43.7c-6.4,0-12.3,2.7-16.6,6.9C213.3,99,210.7,104.9,210.7,111.4z"/>
			<path class="st0" d="M124.9,127.6H387c5.5,0,10.6,2.3,14.2,5.9l0,0c3.7,3.7,5.9,8.7,5.9,14.2v14.6c0,3.1-2.5,5.6-5.6,5.6h-0.2
				H110.4c-3.1,0-5.6-2.5-5.6-5.6v-0.1v-14.4c0-5.5,2.3-10.6,5.9-14.2l0,0C114.3,129.8,119.4,127.6,124.9,127.6L124.9,127.6z
				 M387.1,138.8H124.9c-2.5,0-4.7,1-6.3,2.6l0,0c-1.6,1.6-2.6,3.8-2.6,6.3v8.9h280v-8.9c0-2.5-1-4.7-2.6-6.3l0,0
				C391.8,139.8,389.5,138.8,387.1,138.8z"/>
		</g>
	</g>
</g>
</svg>
