<?xml version="1.0" encoding="utf-8"?>
<!-- Generator: Adobe Illustrator 24.1.2, SVG Export Plug-In . SVG Version: 6.00 Build 0)  -->
<svg version="1.1" id="Слой_1" xmlns="http://www.w3.org/2000/svg" xmlns:xlink="http://www.w3.org/1999/xlink" x="0px" y="0px"
	 viewBox="0 0 100 100" style="enable-background:new 0 0 100 100;" xml:space="preserve">
<style type="text/css">
	.st0{fill:#FFB26C;}
</style>
<g>
	<path class="st0" d="M11.6,12.9c0,24.7,0,49.3,0,74c25.2,0,50.4,0,75.6,0c0-0.2,0-0.4,0-0.6c0-14,0-27.9,0-41.9
		c0-1,0.5-1.7,1.4-1.8s1.7,0.5,1.8,1.4c0,0.2,0,0.4,0,0.6c0,14.6,0,29.1,0,43.7c0,1.1-0.4,1.7-1.2,1.9c-0.2,0.1-0.4,0.1-0.6,0.1
		c-26.2,0-52.4,0-78.6,0c-1.2,0-1.8-0.7-1.8-1.8c0-25.6,0-51.3,0-76.9c0-1.2,0.6-1.9,1.9-1.9c15.2,0,30.4,0,45.7,0
		c1.5,0,2.2,1.3,1.7,2.4c-0.3,0.6-0.8,0.8-1.4,0.9c-0.2,0-0.3,0-0.5,0c-14.4,0-28.9,0-43.3,0C12.1,12.9,11.9,12.9,11.6,12.9z"/>
	<path class="st0" d="M31.7,67.2c0-0.2,0.1-0.4,0.2-0.7c1.8-5.8,3.7-11.6,5.5-17.4c0.1-0.4,0.3-0.7,0.6-1
		C53.3,32.8,68.6,17.5,83.8,2.2c0.9-0.9,1.8-0.9,2.7,0c3.9,4,7.9,7.9,11.9,11.9c0.9,0.9,0.8,1.8,0,2.6C94.2,20.9,90.1,25,86,29.1
		C74.9,40.2,63.8,51.3,52.7,62.4c-0.4,0.4-0.9,0.7-1.5,0.9c-5.7,1.8-11.4,3.6-17.2,5.4c-1.1,0.3-2-0.1-2.3-1.1
		C31.8,67.5,31.8,67.3,31.7,67.2z M87.1,23.3c-3.3-3.3-6.5-6.5-9.7-9.7C66.6,24.3,55.8,35.1,45,45.9c3.2,3.2,6.5,6.5,9.7,9.7
		C65.5,44.9,76.3,34,87.1,23.3z M52.3,58.1c-3.3-3.3-6.5-6.5-9.9-9.9c-0.5,0.5-1.1,1.1-1.7,1.7c-0.2,0.2-0.3,0.4-0.4,0.7
		c-1.1,3.5-2.2,7-3.3,10.5c-0.4,1.2-0.7,2.3-1.1,3.5c0.2,0,0.2,0,0.3-0.1c4.6-1.5,9.2-2.9,13.8-4.4c0.1,0,0.3-0.1,0.3-0.2
		C51.1,59.4,51.7,58.7,52.3,58.1z M85.2,5.7c-1.8,1.8-3.6,3.6-5.3,5.3c3.2,3.2,6.5,6.5,9.7,9.7c1.8-1.8,3.6-3.6,5.4-5.3
		C91.7,12.2,88.4,8.9,85.2,5.7z"/>
</g>
</svg>
